<svg id="Camada_1" data-name="Camada 1" xmlns="http://www.w3.org/2000/svg" xmlns:xlink="http://www.w3.org/1999/xlink" viewBox="0 0 223.97 153.69"><defs><style>.cls-1{fill:none;}.cls-2{clip-path:url(#clip-path);}.cls-3{fill:#41ad50;}.cls-4{fill:#41ad4f;}.cls-5{fill:#40ad4f;}.cls-6{fill:#40ad4e;}.cls-7{fill:#3fad4e;}.cls-8{fill:#3fac4d;}.cls-9{fill:#3eac4d;}.cls-10{fill:#3dac4c;}.cls-11{fill:#3dac4b;}.cls-12{fill:#3bac4b;}.cls-13{fill:#3bac4a;}.cls-14{fill:#3aab4a;}.cls-15{fill:#3aab49;}.cls-16{fill:#39ab48;}.cls-17{fill:#38ab48;}.cls-18{fill:#38ab47;}.cls-19{fill:#36aa47;}.cls-20{fill:#34aa47;}.cls-21{fill:#33aa45;}.cls-22{fill:#3a4;}.cls-23{fill:#31a944;}.cls-24{fill:#30a944;}.cls-25{fill:#2ea942;}.cls-26{fill:#2ca941;}.cls-27{fill:#2aa840;}.cls-28{fill:#28a83f;}.cls-29{fill:#26a73e;}.cls-30{fill:#22a73c;}.cls-31{fill:#20a73b;}.cls-32{fill:#1da63a;}.cls-33{fill:#1ba638;}.cls-34{fill:#18a638;}.cls-35{fill:#15a638;}.cls-36{fill:#14a538;}.cls-37{fill:#13a338;}.cls-38{fill:#12a238;}.cls-39{fill:#11a138;}.cls-40{fill:#10a039;}.cls-41{fill:#119e39;}.cls-42{fill:#129d39;}.cls-43{fill:#129b39;}.cls-44{fill:#129a39;}.cls-45{fill:#109939;}.cls-46{fill:#0c9739;}.cls-47{fill:#0a9739;}.cls-48{fill:#0a9539;}.cls-49{fill:#0c9339;}.cls-50{fill:#0d9238;}.cls-51{fill:#0f9038;}.cls-52{fill:#118f38;}.cls-53{fill:#108d38;}.cls-54{fill:#108b38;}.cls-55{fill:#0e8937;}.cls-56{fill:#0e8837;}.cls-57{fill:#0e8637;}.cls-58{fill:#0f8436;}.cls-59{fill:#108236;}.cls-60{fill:#118035;}.cls-61{fill:#117e35;}.cls-62{fill:#117c35;}.cls-63{fill:#107a34;}.cls-64{fill:#0f7834;}.cls-65{fill:#107633;}.cls-66{fill:#0f7433;}.cls-67{fill:#107232;}.cls-68{clip-path:url(#clip-path-2);}.cls-69{clip-path:url(#clip-path-3);}.cls-70{fill:#40ad50;}.cls-71{fill:#3eac50;}.cls-72{fill:#3dac4f;}.cls-73{fill:#3dac4e;}.cls-74{fill:#3bac4e;}.cls-75{fill:#3aac4e;}.cls-76{fill:#38ab4e;}.cls-77{fill:#37ab4e;}.cls-78{fill:#35ab4e;}.cls-79{fill:#33aa4e;}.cls-80{fill:#32aa4e;}.cls-81{fill:#30aa4e;}.cls-82{fill:#2faa4e;}.cls-83{fill:#2eaa4e;}.cls-84{fill:#2da94d;}.cls-85{fill:#2ba94c;}.cls-86{fill:#29a94c;}.cls-87{fill:#27a94c;}.cls-88{fill:#22a84c;}.cls-89{fill:#1fa84b;}.cls-90{fill:#1da84b;}.cls-91{fill:#1ba74b;}.cls-92{fill:#1aa74b;}.cls-93{fill:#18a64b;}.cls-94{fill:#17a54a;}.cls-95{fill:#14a44a;}.cls-96{fill:#13a34a;}.cls-97{fill:#11a24a;}.cls-98{fill:#0fa14a;}.cls-99{fill:#10a04a;}.cls-100{fill:#0f9f49;}.cls-101{fill:#109e49;}.cls-102{fill:#109d49;}.cls-103{fill:#129c49;}.cls-104{fill:#129b48;}.cls-105{fill:#139a48;}</style><clipPath id="clip-path"><path class="cls-1" d="M223.49,74.35l0,.05a8.2,8.2,0,0,1,.43,2.44c0-.11,0-.23,0-.35a8.55,8.55,0,0,0-.26-2.12v0l-.36-1.07L200.43,4.45c-.44-2.53-2-4.4-3.79-4.4L181.08,0c-2.19,0-4,2.67-4,6a8.28,8.28,0,0,0,.6,3.16l18.45,67.71L208.93,30Z"/></clipPath><clipPath id="clip-path-2"><path class="cls-1" d="M.48,74.35l0,.05A8.2,8.2,0,0,0,0,76.84c0-.11,0-.23,0-.35a8.55,8.55,0,0,1,.26-2.12v0l.36-1.07L23.54,4.45c.44-2.53,2-4.4,3.79-4.4L42.89,0c2.19,0,4,2.67,4,6a8.28,8.28,0,0,1-.6,3.16L27.8,76.84,15,30Z"/></clipPath><clipPath id="clip-path-3"><path class="cls-1" d="M149.61,129.73s-15.64,10-25.65,0v24S152,152.6,149.61,129.73Z"/></clipPath></defs><g class="cls-2"><polyline class="cls-3" points="223.97 13.6 177.12 34.81 177.12 0 223.97 0 223.97 13.6"/><polyline class="cls-3" points="223.97 14.3 177.12 35.52 177.12 34.81 223.97 13.6 223.97 14.3"/><polyline class="cls-3" points="223.97 15 177.12 36.22 177.12 35.52 223.97 14.3 223.97 15"/><polyline class="cls-3" points="223.97 15.7 177.12 36.92 177.12 36.22 223.97 15 223.97 15.7"/><polyline class="cls-3" points="223.97 16.4 177.12 37.62 177.12 36.92 223.97 15.7 223.97 16.4"/><polyline class="cls-3" points="223.97 17.11 177.12 38.32 177.12 37.62 223.97 16.4 223.97 17.11"/><polyline class="cls-3" points="223.97 17.81 177.12 39.02 177.12 38.32 223.97 17.11 223.97 17.81"/><polyline class="cls-3" points="223.97 18.51 177.12 39.73 177.12 39.02 223.97 17.81 223.97 18.51"/><polyline class="cls-3" points="223.97 19.21 177.12 40.43 177.12 39.73 223.97 18.51 223.97 19.21"/><polyline class="cls-4" points="223.97 19.91 177.12 41.13 177.12 40.43 223.97 19.21 223.97 19.91"/><polyline class="cls-4" points="223.97 20.61 177.12 41.83 177.12 41.13 223.97 19.91 223.97 20.61"/><polyline class="cls-4" points="223.97 21.32 177.12 42.53 177.12 41.83 223.97 20.61 223.97 21.32"/><polyline class="cls-4" points="223.97 22.02 177.12 43.23 177.12 42.53 223.97 21.32 223.97 22.02"/><polyline class="cls-5" points="223.97 22.72 177.12 43.94 177.12 43.23 223.97 22.02 223.97 22.72"/><polyline class="cls-6" points="223.97 23.42 177.12 44.64 177.12 43.94 223.97 22.72 223.97 23.42"/><polyline class="cls-6" points="223.97 24.12 177.12 45.34 177.12 44.64 223.97 23.42 223.97 24.12"/><polyline class="cls-7" points="223.97 24.82 177.12 46.04 177.12 45.34 223.97 24.12 223.97 24.82"/><polyline class="cls-8" points="223.97 25.52 177.12 46.74 177.12 46.04 223.97 24.82 223.97 25.52"/><polyline class="cls-8" points="223.97 26.23 177.12 47.44 177.12 46.74 223.97 25.52 223.97 26.23"/><polyline class="cls-9" points="223.97 26.93 177.12 48.15 177.12 47.44 223.97 26.23 223.97 26.93"/><polyline class="cls-9" points="223.97 27.63 177.12 48.85 177.12 48.15 223.97 26.93 223.97 27.63"/><polyline class="cls-10" points="223.97 28.33 177.12 49.55 177.12 48.85 223.97 27.63 223.97 28.33"/><polyline class="cls-11" points="223.97 29.03 177.12 50.25 177.12 49.55 223.97 28.33 223.97 29.03"/><polyline class="cls-12" points="223.97 29.74 177.12 50.95 177.12 50.25 223.97 29.03 223.97 29.74"/><polyline class="cls-13" points="223.97 30.44 177.12 51.65 177.12 50.95 223.97 29.74 223.97 30.44"/><polyline class="cls-14" points="223.97 31.14 177.12 52.36 177.12 51.65 223.97 30.44 223.97 31.14"/><polyline class="cls-15" points="223.97 31.84 177.12 53.06 177.12 52.36 223.97 31.14 223.97 31.84"/><polyline class="cls-16" points="223.97 32.54 177.12 53.76 177.12 53.06 223.97 31.84 223.97 32.54"/><polyline class="cls-17" points="223.97 33.24 177.12 54.46 177.12 53.76 223.97 32.54 223.97 33.24"/><polyline class="cls-18" points="223.97 33.95 177.12 55.16 177.12 54.46 223.97 33.24 223.97 33.95"/><polyline class="cls-19" points="223.97 34.65 177.12 55.86 177.12 55.16 223.97 33.95 223.97 34.65"/><polyline class="cls-20" points="223.97 35.35 177.12 56.57 177.12 55.86 223.97 34.65 223.97 35.35"/><polyline class="cls-21" points="223.97 36.05 177.12 57.27 177.12 56.57 223.97 35.35 223.97 36.05"/><polyline class="cls-22" points="223.97 36.75 177.12 57.97 177.12 57.27 223.97 36.05 223.97 36.75"/><polyline class="cls-23" points="223.97 37.45 177.12 58.67 177.12 57.97 223.97 36.75 223.97 37.45"/><polyline class="cls-24" points="223.97 38.16 177.12 59.37 177.12 58.67 223.97 37.45 223.97 38.16"/><polyline class="cls-25" points="223.97 38.86 177.12 60.07 177.12 59.37 223.97 38.16 223.97 38.86"/><polyline class="cls-26" points="223.97 39.56 177.12 60.78 177.12 60.07 223.97 38.86 223.97 39.56"/><polyline class="cls-27" points="223.97 40.26 177.12 61.48 177.12 60.78 223.97 39.56 223.97 40.26"/><polyline class="cls-28" points="223.97 40.96 177.12 62.18 177.12 61.48 223.97 40.26 223.97 40.96"/><polyline class="cls-29" points="223.97 41.66 177.12 62.88 177.12 62.18 223.97 40.96 223.97 41.66"/><polyline class="cls-30" points="223.97 42.37 177.12 63.58 177.12 62.88 223.97 41.66 223.97 42.37"/><polyline class="cls-31" points="223.97 43.07 177.12 64.28 177.12 63.58 223.97 42.37 223.97 43.07"/><polyline class="cls-32" points="223.97 43.77 177.12 64.99 177.12 64.28 223.97 43.07 223.97 43.77"/><polyline class="cls-33" points="223.97 44.47 177.12 65.69 177.12 64.99 223.97 43.77 223.97 44.47"/><polyline class="cls-34" points="223.97 45.17 177.12 66.39 177.12 65.69 223.97 44.47 223.97 45.17"/><polyline class="cls-35" points="223.97 45.87 177.12 67.09 177.12 66.39 223.97 45.17 223.97 45.87"/><polyline class="cls-36" points="223.97 46.58 177.12 67.79 177.12 67.09 223.97 45.87 223.97 46.58"/><polyline class="cls-37" points="223.97 47.28 177.12 68.49 177.12 67.79 223.97 46.58 223.97 47.28"/><polyline class="cls-38" points="223.97 47.98 177.12 69.2 177.12 68.49 223.97 47.28 223.97 47.98"/><polyline class="cls-39" points="223.97 48.68 177.12 69.9 177.12 69.2 223.97 47.98 223.97 48.68"/><polyline class="cls-40" points="223.97 49.38 177.12 70.6 177.12 69.9 223.97 48.68 223.97 49.38"/><polyline class="cls-41" points="223.97 50.08 177.12 71.3 177.12 70.6 223.97 49.38 223.97 50.08"/><polyline class="cls-42" points="223.97 50.79 177.12 72 177.12 71.3 223.97 50.08 223.97 50.79"/><polyline class="cls-43" points="223.97 51.49 177.12 72.7 177.12 72 223.97 50.79 223.97 51.49"/><polyline class="cls-44" points="223.97 52.19 177.12 73.41 177.12 72.7 223.97 51.49 223.97 52.19"/><polyline class="cls-45" points="223.97 52.89 177.12 74.11 177.12 73.41 223.97 52.19 223.97 52.89"/><polyline class="cls-46" points="223.97 53.59 177.12 74.81 177.12 74.11 223.97 52.89 223.97 53.59"/><polyline class="cls-47" points="223.97 54.29 177.12 75.51 177.12 74.81 223.97 53.59 223.97 54.29"/><polyline class="cls-48" points="223.97 55 177.12 76.21 177.12 75.51 223.97 54.29 223.97 55"/><polyline class="cls-49" points="223.97 55.7 177.27 76.84 177.12 76.84 177.12 76.21 223.97 55 223.97 55.7"/><polyline class="cls-50" points="223.97 56.4 178.82 76.84 177.27 76.84 223.97 55.7 223.97 56.4"/><polyline class="cls-51" points="223.97 57.1 180.37 76.84 178.82 76.84 223.97 56.4 223.97 57.1"/><polyline class="cls-52" points="223.97 57.8 181.92 76.84 180.37 76.84 223.97 57.1 223.97 57.8"/><polyline class="cls-53" points="223.97 58.5 183.47 76.84 181.92 76.84 223.97 57.8 223.97 58.5"/><polyline class="cls-54" points="223.97 59.21 185.02 76.84 183.47 76.84 223.97 58.5 223.97 59.21"/><polyline class="cls-55" points="223.97 59.91 186.57 76.84 185.02 76.84 223.97 59.21 223.97 59.91"/><polyline class="cls-56" points="223.97 60.61 188.12 76.84 186.57 76.84 223.97 59.91 223.97 60.61"/><polyline class="cls-57" points="223.97 61.31 189.67 76.84 188.12 76.84 223.97 60.61 223.97 61.31"/><polyline class="cls-58" points="223.97 62.01 191.22 76.84 189.67 76.84 223.97 61.31 223.97 62.01"/><polyline class="cls-59" points="223.97 62.72 192.77 76.84 191.22 76.84 223.97 62.01 223.97 62.72"/><polyline class="cls-60" points="223.97 63.42 194.31 76.84 192.77 76.84 223.97 62.72 223.97 63.42"/><polyline class="cls-61" points="223.97 64.12 195.87 76.84 194.31 76.84 223.97 63.42 223.97 64.12"/><polyline class="cls-62" points="223.97 64.82 197.41 76.84 195.87 76.84 223.97 64.12 223.97 64.82"/><polyline class="cls-63" points="223.97 65.52 198.96 76.84 197.41 76.84 223.97 64.82 223.97 65.52"/><polyline class="cls-64" points="223.97 66.22 200.51 76.84 198.96 76.84 223.97 65.52 223.97 66.22"/><polyline class="cls-65" points="223.97 66.92 202.06 76.84 200.51 76.84 223.97 66.22 223.97 66.92"/><polyline class="cls-66" points="223.97 67.63 203.61 76.84 202.06 76.84 223.97 66.92 223.97 67.63"/><polyline class="cls-67" points="223.97 68.33 205.16 76.84 203.61 76.84 223.97 67.63 223.97 68.33"/><polyline class="cls-67" points="205.16 76.84 223.97 68.33 223.97 76.84 205.16 76.84"/></g><path class="cls-3" d="M223.51,74.4l0-.05L208.93,30,196.17,76.84l-18.45,67.72a8.28,8.28,0,0,0-.6,3.16c0,3.3,1.77,6,4,6l15.56-.05c1.82,0,3.35-1.87,3.79-4.4l22.92-68.83.36-1.07v0A8.55,8.55,0,0,0,224,77.2c0-.12,0-.23,0-.36A8.2,8.2,0,0,0,223.51,74.4Z"/><g class="cls-68"><polyline class="cls-3" points="46.85 34.81 0 13.6 0 0 46.85 0 46.85 34.81"/><polyline class="cls-3" points="46.85 35.52 0 14.3 0 13.6 46.85 34.81 46.85 35.52"/><polyline class="cls-3" points="46.85 36.22 0 15 0 14.3 46.85 35.52 46.85 36.22"/><polyline class="cls-3" points="46.85 36.92 0 15.7 0 15 46.85 36.22 46.85 36.92"/><polyline class="cls-3" points="46.85 37.62 0 16.4 0 15.7 46.85 36.92 46.85 37.62"/><polyline class="cls-3" points="46.85 38.32 0 17.11 0 16.4 46.85 37.62 46.85 38.32"/><polyline class="cls-3" points="46.85 39.02 0 17.81 0 17.11 46.85 38.32 46.85 39.02"/><polyline class="cls-3" points="46.85 39.73 0 18.51 0 17.81 46.85 39.02 46.85 39.73"/><polyline class="cls-3" points="46.85 40.43 0 19.21 0 18.51 46.85 39.73 46.85 40.43"/><polyline class="cls-4" points="46.85 41.13 0 19.91 0 19.21 46.85 40.43 46.85 41.13"/><polyline class="cls-4" points="46.85 41.83 0 20.61 0 19.91 46.85 41.13 46.85 41.83"/><polyline class="cls-4" points="46.85 42.53 0 21.32 0 20.61 46.85 41.83 46.85 42.53"/><polyline class="cls-4" points="46.85 43.23 0 22.02 0 21.32 46.85 42.53 46.85 43.23"/><polyline class="cls-5" points="46.85 43.94 0 22.72 0 22.02 46.85 43.23 46.85 43.94"/><polyline class="cls-6" points="46.85 44.64 0 23.42 0 22.72 46.85 43.94 46.85 44.64"/><polyline class="cls-6" points="46.85 45.34 0 24.12 0 23.42 46.85 44.64 46.85 45.34"/><polyline class="cls-7" points="46.85 46.04 0 24.82 0 24.12 46.85 45.34 46.85 46.04"/><polyline class="cls-8" points="46.85 46.74 0 25.52 0 24.82 46.85 46.04 46.85 46.74"/><polyline class="cls-8" points="46.85 47.44 0 26.23 0 25.52 46.85 46.74 46.85 47.44"/><polyline class="cls-9" points="46.85 48.15 0 26.93 0 26.23 46.85 47.44 46.85 48.15"/><polyline class="cls-9" points="46.85 48.85 0 27.63 0 26.93 46.85 48.15 46.85 48.85"/><polyline class="cls-10" points="46.85 49.55 0 28.33 0 27.63 46.85 48.85 46.85 49.55"/><polyline class="cls-11" points="46.85 50.25 0 29.03 0 28.33 46.85 49.55 46.85 50.25"/><polyline class="cls-12" points="46.85 50.95 0 29.73 0 29.03 46.85 50.25 46.85 50.95"/><polyline class="cls-13" points="46.85 51.65 0 30.44 0 29.73 46.85 50.95 46.85 51.65"/><polyline class="cls-14" points="46.85 52.35 0 31.14 0 30.44 46.85 51.65 46.85 52.35"/><polyline class="cls-15" points="46.85 53.06 0 31.84 0 31.14 46.85 52.35 46.85 53.06"/><polyline class="cls-16" points="46.85 53.76 0 32.54 0 31.84 46.85 53.06 46.85 53.76"/><polyline class="cls-17" points="46.85 54.46 0 33.24 0 32.54 46.85 53.76 46.85 54.46"/><polyline class="cls-18" points="46.85 55.16 0 33.95 0 33.24 46.85 54.46 46.85 55.16"/><polyline class="cls-19" points="46.85 55.86 0 34.65 0 33.95 46.85 55.16 46.85 55.86"/><polyline class="cls-20" points="46.85 56.57 0 35.35 0 34.65 46.85 55.86 46.85 56.57"/><polyline class="cls-21" points="46.85 57.27 0 36.05 0 35.35 46.85 56.57 46.85 57.27"/><polyline class="cls-22" points="46.85 57.97 0 36.75 0 36.05 46.85 57.27 46.85 57.97"/><polyline class="cls-23" points="46.85 58.67 0 37.45 0 36.75 46.85 57.97 46.85 58.67"/><polyline class="cls-24" points="46.85 59.37 0 38.16 0 37.45 46.85 58.67 46.85 59.37"/><polyline class="cls-25" points="46.85 60.07 0 38.86 0 38.16 46.85 59.37 46.85 60.07"/><polyline class="cls-26" points="46.85 60.78 0 39.56 0 38.86 46.85 60.07 46.85 60.78"/><polyline class="cls-27" points="46.85 61.48 0 40.26 0 39.56 46.85 60.78 46.85 61.48"/><polyline class="cls-28" points="46.85 62.18 0 40.96 0 40.26 46.85 61.48 46.85 62.18"/><polyline class="cls-29" points="46.85 62.88 0 41.66 0 40.96 46.85 62.18 46.85 62.88"/><polyline class="cls-30" points="46.85 63.58 0 42.37 0 41.66 46.85 62.88 46.85 63.58"/><polyline class="cls-31" points="46.85 64.28 0 43.07 0 42.37 46.85 63.58 46.85 64.28"/><polyline class="cls-32" points="46.85 64.99 0 43.77 0 43.07 46.85 64.28 46.85 64.99"/><polyline class="cls-33" points="46.85 65.69 0 44.47 0 43.77 46.85 64.99 46.85 65.69"/><polyline class="cls-34" points="46.85 66.39 0 45.17 0 44.47 46.85 65.69 46.85 66.39"/><polyline class="cls-35" points="46.85 67.09 0 45.87 0 45.17 46.85 66.39 46.85 67.09"/><polyline class="cls-36" points="46.85 67.79 0 46.58 0 45.87 46.85 67.09 46.85 67.79"/><polyline class="cls-37" points="46.85 68.49 0 47.28 0 46.58 46.85 67.79 46.85 68.49"/><polyline class="cls-38" points="46.85 69.2 0 47.98 0 47.28 46.85 68.49 46.85 69.2"/><polyline class="cls-39" points="46.85 69.9 0 48.68 0 47.98 46.85 69.2 46.85 69.9"/><polyline class="cls-40" points="46.85 70.6 0 49.38 0 48.68 46.85 69.9 46.85 70.6"/><polyline class="cls-41" points="46.85 71.3 0 50.08 0 49.38 46.85 70.6 46.85 71.3"/><polyline class="cls-42" points="46.85 72 0 50.79 0 50.08 46.85 71.3 46.85 72"/><polyline class="cls-43" points="46.85 72.7 0 51.49 0 50.79 46.85 72 46.85 72.7"/><polyline class="cls-44" points="46.85 73.41 0 52.19 0 51.49 46.85 72.7 46.85 73.41"/><polyline class="cls-45" points="46.85 74.11 0 52.89 0 52.19 46.85 73.41 46.85 74.11"/><polyline class="cls-46" points="46.85 74.81 0 53.59 0 52.89 46.85 74.11 46.85 74.81"/><polyline class="cls-47" points="46.85 75.51 0 54.29 0 53.59 46.85 74.81 46.85 75.51"/><polyline class="cls-48" points="46.85 76.21 0 55 0 54.29 46.85 75.51 46.85 76.21"/><polyline class="cls-49" points="46.7 76.84 0 55.7 0 55 46.85 76.21 46.85 76.84 46.7 76.84"/><polyline class="cls-50" points="45.15 76.84 0 56.4 0 55.7 46.7 76.84 45.15 76.84"/><polyline class="cls-51" points="43.6 76.84 0 57.1 0 56.4 45.15 76.84 43.6 76.84"/><polyline class="cls-52" points="42.05 76.84 0 57.8 0 57.1 43.6 76.84 42.05 76.84"/><polyline class="cls-53" points="40.5 76.84 0 58.5 0 57.8 42.05 76.84 40.5 76.84"/><polyline class="cls-54" points="38.95 76.84 0 59.21 0 58.5 40.5 76.84 38.95 76.84"/><polyline class="cls-55" points="37.4 76.84 0 59.91 0 59.21 38.95 76.84 37.4 76.84"/><polyline class="cls-56" points="35.85 76.84 0 60.61 0 59.91 37.4 76.84 35.85 76.84"/><polyline class="cls-57" points="34.3 76.84 0 61.31 0 60.61 35.85 76.84 34.3 76.84"/><polyline class="cls-58" points="32.75 76.84 0 62.01 0 61.31 34.3 76.84 32.75 76.84"/><polyline class="cls-59" points="31.2 76.84 0 62.72 0 62.01 32.75 76.84 31.2 76.84"/><polyline class="cls-60" points="29.65 76.84 0 63.42 0 62.72 31.2 76.84 29.65 76.84"/><polyline class="cls-61" points="28.11 76.84 0 64.12 0 63.42 29.65 76.84 28.11 76.84"/><polyline class="cls-62" points="26.55 76.84 0 64.82 0 64.12 28.11 76.84 26.55 76.84"/><polyline class="cls-63" points="25.01 76.84 0 65.52 0 64.82 26.55 76.84 25.01 76.84"/><polyline class="cls-64" points="23.46 76.84 0 66.22 0 65.52 25.01 76.84 23.46 76.84"/><polyline class="cls-65" points="21.91 76.84 0 66.92 0 66.22 23.46 76.84 21.91 76.84"/><polyline class="cls-66" points="20.36 76.84 0 67.63 0 66.92 21.91 76.84 20.36 76.84"/><polyline class="cls-67" points="18.81 76.84 0 68.33 0 67.63 20.36 76.84 18.81 76.84"/><polyline class="cls-67" points="0 68.33 18.81 76.84 0 76.84 0 68.33"/></g><path class="cls-3" d="M.46,74.4l0-.05L15,30,27.8,76.84l18.45,67.72a8.28,8.28,0,0,1,.6,3.16c0,3.3-1.77,6-4,6l-15.56-.05c-1.82,0-3.35-1.87-3.79-4.4L.62,80.41.26,79.34v0A8.55,8.55,0,0,1,0,77.2c0-.12,0-.23,0-.36A8.2,8.2,0,0,1,.46,74.4Z"/><path class="cls-3" d="M101.71,25.05a14.38,14.38,0,0,1-4.07-10.44,14.39,14.39,0,0,1,4.07-10.44,14.89,14.89,0,0,1,20.67,0,14.39,14.39,0,0,1,4.07,10.44,14.38,14.38,0,0,1-4.07,10.44,14.89,14.89,0,0,1-20.67,0ZM124,153.69h0a23.79,23.79,0,0,1-23.79-23.79V60q0-5.43,3.54-8.25a14.33,14.33,0,0,1,9.19-2.82,30.65,30.65,0,0,1,6,.63,17.73,17.73,0,0,1,5,1.67Z"/><g class="cls-69"><polyline class="cls-3" points="123.96 142.22 151.16 129.73 152.01 129.73 152.01 153.69 123.96 153.69 123.96 142.22"/><polyline class="cls-3" points="123.96 141.95 150.56 129.73 151.16 129.73 123.96 142.22 123.96 141.95"/><polyline class="cls-3" points="123.96 141.67 149.95 129.73 150.56 129.73 123.96 141.95 123.96 141.67"/><polyline class="cls-3" points="123.96 141.39 149.35 129.73 149.95 129.73 123.96 141.67 123.96 141.39"/><polyline class="cls-3" points="123.96 141.11 148.74 129.73 149.35 129.73 123.96 141.39 123.96 141.11"/><polyline class="cls-70" points="123.96 140.83 148.13 129.73 148.74 129.73 123.96 141.11 123.96 140.83"/><polyline class="cls-70" points="123.96 140.56 147.53 129.73 148.13 129.73 123.96 140.83 123.96 140.56"/><polyline class="cls-70" points="123.96 140.28 146.92 129.73 147.53 129.73 123.96 140.56 123.96 140.28"/><polyline class="cls-71" points="123.96 140 146.32 129.73 146.92 129.73 123.96 140.28 123.96 140"/><polyline class="cls-72" points="123.96 139.72 145.71 129.73 146.32 129.73 123.96 140 123.96 139.72"/><polyline class="cls-73" points="123.96 139.44 145.11 129.73 145.71 129.73 123.96 139.72 123.96 139.44"/><polyline class="cls-74" points="123.96 139.16 144.5 129.73 145.11 129.73 123.96 139.44 123.96 139.16"/><polyline class="cls-75" points="123.96 138.89 143.9 129.73 144.5 129.73 123.96 139.16 123.96 138.89"/><polyline class="cls-76" points="123.96 138.61 143.29 129.73 143.9 129.73 123.96 138.89 123.96 138.61"/><polyline class="cls-76" points="123.96 138.33 142.68 129.73 143.29 129.73 123.96 138.61 123.96 138.33"/><polyline class="cls-77" points="123.96 138.05 142.08 129.73 142.68 129.73 123.96 138.33 123.96 138.05"/><polyline class="cls-78" points="123.96 137.77 141.47 129.73 142.08 129.73 123.96 138.05 123.96 137.77"/><polyline class="cls-79" points="123.96 137.49 140.87 129.73 141.47 129.73 123.96 137.77 123.96 137.49"/><polyline class="cls-80" points="123.96 137.22 140.26 129.73 140.87 129.73 123.96 137.49 123.96 137.22"/><polyline class="cls-81" points="123.96 136.94 139.66 129.73 140.26 129.73 123.96 137.22 123.96 136.94"/><polyline class="cls-81" points="123.96 136.66 139.05 129.73 139.66 129.73 123.96 136.94 123.96 136.66"/><polyline class="cls-82" points="123.96 136.38 138.44 129.73 139.05 129.73 123.96 136.66 123.96 136.38"/><polyline class="cls-83" points="123.96 136.1 137.84 129.73 138.44 129.73 123.96 136.38 123.96 136.1"/><polyline class="cls-84" points="123.96 135.82 137.23 129.73 137.84 129.73 123.96 136.1 123.96 135.82"/><polyline class="cls-85" points="123.96 135.55 136.63 129.73 137.23 129.73 123.96 135.82 123.96 135.55"/><polyline class="cls-86" points="123.96 135.27 136.02 129.73 136.63 129.73 123.96 135.55 123.96 135.27"/><polyline class="cls-87" points="123.96 134.99 135.41 129.73 136.02 129.73 123.96 135.27 123.96 134.99"/><polyline class="cls-88" points="123.96 134.71 134.81 129.73 135.41 129.73 123.96 134.99 123.96 134.71"/><polyline class="cls-89" points="123.96 134.43 134.2 129.73 134.81 129.73 123.96 134.71 123.96 134.43"/><polyline class="cls-89" points="123.96 134.16 133.6 129.73 134.2 129.73 123.96 134.43 123.96 134.16"/><polyline class="cls-90" points="123.96 133.88 132.99 129.73 133.6 129.73 123.96 134.16 123.96 133.88"/><polyline class="cls-91" points="123.96 133.6 132.39 129.73 132.99 129.73 123.96 133.88 123.96 133.6"/><polyline class="cls-92" points="123.96 133.32 131.78 129.73 132.39 129.73 123.96 133.6 123.96 133.32"/><polyline class="cls-93" points="123.96 133.04 131.18 129.73 131.78 129.73 123.96 133.32 123.96 133.04"/><polyline class="cls-94" points="123.96 132.76 130.57 129.73 131.18 129.73 123.96 133.04 123.96 132.76"/><polyline class="cls-95" points="123.96 132.49 129.96 129.73 130.57 129.73 123.96 132.76 123.96 132.49"/><polyline class="cls-96" points="123.96 132.21 129.36 129.73 129.96 129.73 123.96 132.49 123.96 132.21"/><polyline class="cls-97" points="123.96 131.93 128.75 129.73 129.36 129.73 123.96 132.21 123.96 131.93"/><polyline class="cls-98" points="123.96 131.65 128.15 129.73 128.75 129.73 123.96 131.93 123.96 131.65"/><polyline class="cls-99" points="123.96 131.37 127.54 129.73 128.15 129.73 123.96 131.65 123.96 131.37"/><polyline class="cls-100" points="123.96 131.09 126.94 129.73 127.54 129.73 123.96 131.37 123.96 131.09"/><polyline class="cls-101" points="123.96 130.82 126.33 129.73 126.94 129.73 123.96 131.09 123.96 130.82"/><polyline class="cls-102" points="123.96 130.54 125.72 129.73 126.33 129.73 123.96 130.82 123.96 130.54"/><polyline class="cls-103" points="123.96 130.26 125.12 129.73 125.72 129.73 123.96 130.54 123.96 130.26"/><polyline class="cls-104" points="123.96 129.98 124.51 129.73 125.12 129.73 123.96 130.26 123.96 129.98"/><polyline class="cls-105" points="124.51 129.73 123.96 129.98 123.96 129.73 124.51 129.73"/></g></svg>